<svg width="68" height="68" viewBox="0 0 68 68" fill="none" xmlns="http://www.w3.org/2000/svg">
<path d="M24.5107 13.56V15.5913C24.5107 15.9669 25.0207 16.272 25.6485 16.272H27.9084C28.2098 16.2717 28.4986 16.1998 28.7115 16.0722C28.9244 15.9445 29.044 15.7716 29.044 15.5913V13.56C29.044 12.2596 30.8596 10.4778 33.5773 9.79168V6.9373C28.3277 7.66412 24.5107 10.8073 24.5107 13.56ZM51.858 0.950557L46.1233 3.52425C45.3368 3.87681 44.3802 4.068 43.3965 4.068H38.122C36.864 4.068 35.844 4.6782 35.844 5.43078V10.8426C35.844 11.5938 36.864 12.204 38.122 12.204H43.3965C44.3802 12.204 45.3368 12.3952 46.1233 12.7478L51.8602 15.3215C53.2346 15.9385 54.9065 16.272 56.6248 16.272H58.9333V0H56.6248C54.9067 0 53.2339 0.333576 51.858 0.950557ZM60.4445 1.55586V2.91196V4.068H67.2445L68 1.55586H60.4445ZM60.4445 15.116H68L67.2445 12.7478H60.4445V15.116Z" fill="#3B8D95"/>
<path d="M66.4045 30.5405H58.453L56.243 24.8114C53.9719 18.9211 48.5518 15.116 42.4332 15.116H25.566C19.4486 15.116 14.0272 18.9211 11.7548 24.8114L9.54476 30.5405H1.5946C0.55733 30.5405 -0.203686 31.5513 0.0486577 32.5939L0.845534 35.8991C1.02217 36.6345 1.65968 37.151 2.39147 37.151H5.05702C3.27335 38.7664 2.12452 41.1145 2.12452 43.7615V50.372C2.12452 52.592 2.94265 54.5958 4.24952 56.1465V63.593C4.24952 66.0265 6.15273 68 8.49953 68H12.7495C15.0963 68 16.9995 66.0265 16.9995 63.593V59.186H50.9996V63.593C50.9996 66.0265 52.9028 68 55.2496 68H59.4996C61.8464 68 63.7496 66.0265 63.7496 63.593V56.1465C65.0565 54.5972 65.8746 52.5934 65.8746 50.372V43.7615C65.8746 41.1145 64.7258 38.7664 62.9434 37.151H65.609C66.3408 37.151 66.9783 36.6345 67.1549 35.8991L67.9518 32.5939C68.2028 31.5513 67.4418 30.5405 66.4045 30.5405ZM19.6465 28.0849C20.6147 25.5757 22.9588 23.93 25.566 23.93H42.4332C45.0403 23.93 47.3844 25.5757 48.3526 28.0849L50.9996 34.9475H16.9995L19.6465 28.0849ZM12.7495 50.3444C10.1995 50.3444 8.49953 48.5872 8.49953 45.9512C8.49953 43.3153 10.1995 41.558 12.7495 41.558C15.2995 41.558 19.1245 45.5119 19.1245 48.1478C19.1245 50.7838 15.2995 50.3444 12.7495 50.3444ZM55.2496 50.3444C52.6996 50.3444 48.8746 50.7838 48.8746 48.1478C48.8746 45.5119 52.6996 41.558 55.2496 41.558C57.7996 41.558 59.4996 43.3153 59.4996 45.9512C59.4996 48.5872 57.7996 50.3444 55.2496 50.3444Z" fill="#3B8D95"/>
<path d="M12.7495 50.3444C10.1995 50.3444 8.49953 48.5872 8.49953 45.9512C8.49953 43.3153 10.1995 41.558 12.7495 41.558C15.2995 41.558 19.1245 45.5119 19.1245 48.1478C19.1245 50.7838 15.2995 50.3444 12.7495 50.3444Z" fill="#EDD144"/>
<path d="M55.2496 50.3444C52.6996 50.3444 48.8746 50.7838 48.8746 48.1478C48.8746 45.5119 52.6996 41.558 55.2496 41.558C57.7996 41.558 59.4996 43.3153 59.4996 45.9512C59.4996 48.5872 57.7996 50.3444 55.2496 50.3444Z" fill="#EDD144"/>
<path d="M60.4445 6.97998H66.4889V9.35298H60.4445V6.97998Z" fill="#3B8D95"/>
</svg>
